<?xml version="1.0" standalone="no"?>
<!DOCTYPE svg PUBLIC "-//W3C//DTD SVG 20010904//EN"
 "http://www.w3.org/TR/2001/REC-SVG-20010904/DTD/svg10.dtd">
<svg version="1.0" xmlns="http://www.w3.org/2000/svg"
 width="300.000000pt" height="168.000000pt" viewBox="0 0 300.000000 168.000000"
 preserveAspectRatio="xMidYMid meet">
<metadata>
Created by potrace 1.10, written by Peter Selinger 2001-2011
</metadata>
<g transform="translate(0.000000,168.000000) scale(0.100000,-0.100000)"
fill="#000000" stroke="none">
<path d="M951 1378 c1 -55 5 -50 11 15 2 20 0 37 -4 37 -4 0 -7 -24 -7 -52z"/>
<path d="M1058 1375 l4 -54 -104 -4 c-81 -2 -70 -3 55 -5 l157 -2 2 -92 c1
-51 3 -76 5 -56 3 28 9 38 26 41 l22 4 -22 2 c-21 1 -23 6 -23 50 0 39 4 51
18 54 15 4 15 5 0 6 -13 1 -18 13 -21 59 l-3 57 -2 -57 -2 -58 -50 0 -50 0 0
49 0 50 48 4 47 3 -55 2 -55 2 3 -55z"/>
<path d="M1232 1423 c44 -4 47 -6 51 -36 4 -31 4 -31 5 6 l2 37 -52 -2 -53 -2
47 -3z"/>
<path d="M1342 1423 c44 -4 47 -6 50 -36 l3 -32 6 38 5 37 -56 -2 -55 -2 47
-3z"/>
<path d="M1501 1393 c2 -35 2 -35 6 -8 3 16 10 33 16 37 8 5 6 8 -5 8 -14 0
-18 -8 -17 -37z"/>
<path d="M1612 1383 c1 -48 1 -48 5 -8 3 22 10 43 16 47 8 5 6 8 -5 8 -15 0
-18 -8 -16 -47z"/>
<path d="M1703 1423 c13 -3 17 -15 17 -53 l0 -49 -37 -4 -38 -4 37 -1 c34 -2
37 -5 41 -34 l4 -33 1 33 2 32 168 2 c138 2 147 3 54 5 l-114 4 4 54 c3 53 2
55 -22 54 -17 -1 -19 -3 -7 -6 13 -3 17 -15 17 -54 l0 -49 -50 0 -50 0 0 55
c0 51 -2 55 -22 54 -17 -1 -19 -2 -5 -6z"/>
<path d="M1938 1393 c6 -65 10 -70 11 -15 0 28 -3 52 -7 52 -4 0 -6 -17 -4
-37z"/>
<path d="M2037 1422 c6 -4 13 -28 16 -52 l4 -45 1 53 c2 44 -1 52 -15 52 -12
0 -14 -3 -6 -8z"/>
<path d="M1240 1276 l0 -56 114 0 c121 0 169 -12 214 -53 81 -74 83 -208 4
-282 l-31 -29 70 -77 c38 -42 69 -78 69 -80 0 -2 -34 -3 -75 -1 l-75 4 -53 63
c-52 63 -52 64 -104 64 l-53 1 0 -110 0 -110 221 0 220 0 -3 268 c-3 253 -4
269 -25 308 -28 53 -71 96 -120 120 -32 16 -65 20 -205 22 l-168 3 0 -55z
m388 -15 c89 -56 92 -66 92 -366 l0 -255 -185 0 -185 0 0 75 0 75 32 0 c26 0
42 -12 93 -65 l61 -65 62 0 c49 0 66 4 82 20 25 25 19 39 -47 116 l-44 52 32
50 c56 91 49 194 -20 271 -54 61 -112 81 -232 81 l-99 0 0 26 0 26 153 -4
c151 -4 152 -4 205 -37z"/>
<path d="M952 1258 l-2 -47 -47 -4 c-27 -2 22 -3 107 -3 85 0 134 1 108 3
l-47 4 -4 47 -3 47 -2 -47 -2 -48 -49 0 -50 0 -4 48 -3 47 -2 -47z"/>
<path d="M1832 1258 l-2 -47 -42 -3 c-24 -2 28 -6 115 -8 86 -3 157 -2 157 3
0 4 -49 7 -109 7 l-110 0 -4 48 -3 47 -2 -47z"/>
<path d="M1943 1260 c0 -25 2 -35 4 -22 2 12 2 32 0 45 -2 12 -4 2 -4 -23z"/>
<path d="M2053 1260 c0 -25 2 -35 4 -22 2 12 2 32 0 45 -2 12 -4 2 -4 -23z"/>
<path d="M952 1148 l-2 -47 -47 -4 c-27 -2 2 -4 62 -5 l110 -2 -5 52 -5 53 -3
-47 -3 -48 -49 0 -49 0 -4 48 -3 47 -2 -47z"/>
<path d="M1282 1160 c0 -19 2 -27 5 -17 2 9 2 25 0 35 -3 9 -5 1 -5 -18z"/>
<path d="M1392 1160 c0 -19 2 -27 5 -17 2 9 2 25 0 35 -3 9 -5 1 -5 -18z"/>
<path d="M1830 1146 c0 -41 -2 -45 -27 -49 -26 -4 -26 -4 5 -6 l32 -1 0 50 c0
28 -2 50 -5 50 -3 0 -5 -20 -5 -44z"/>
<path d="M1942 1148 l-2 -47 -47 -4 -48 -3 48 -2 47 -2 0 -50 0 -50 -49 0 -50
0 -4 48 -3 47 -2 -47 c-2 -40 -5 -47 -24 -51 l-23 -4 23 -2 c20 -1 22 -6 22
-50 0 -43 -3 -50 -22 -54 l-23 -4 22 -2 c21 -1 22 -5 26 -113 2 -92 3 -82 5
55 l2 167 110 0 c108 0 110 0 109 23 -1 16 -2 18 -6 5 -3 -14 -15 -18 -54 -18
l-49 0 0 50 0 50 49 0 c30 0 51 -5 54 -12 3 -7 5 14 4 47 0 47 -1 51 -4 18
l-4 -43 -49 0 -49 0 -4 48 -3 47 -2 -47z"/>
<path d="M1503 1145 c0 -22 2 -30 4 -17 2 12 2 30 0 40 -3 9 -5 -1 -4 -23z"/>
<path d="M1110 1108 c0 -2 -1 -114 -3 -251 l-2 -247 53 0 52 0 0 165 0 165
130 0 c126 0 132 1 155 25 37 36 34 86 -6 119 -30 26 -32 26 -205 26 -96 0
-174 -1 -174 -2z m367 -50 c20 -16 15 -55 -9 -72 -17 -12 -50 -16 -137 -16
-157 0 -151 7 -151 -182 0 -141 -1 -148 -20 -148 -19 0 -20 7 -20 214 l0 215
23 3 c51 7 302 -4 314 -14z"/>
<path d="M1538 1093 c12 -2 30 -2 40 0 9 3 -1 5 -23 4 -22 0 -30 -2 -17 -4z"/>
<path d="M952 1038 l-2 -47 -47 -4 -48 -3 48 -2 47 -2 0 -165 c0 -91 3 -165 8
-165 4 0 5 24 4 54 l-4 55 49 4 48 3 -47 2 -47 2 0 105 0 105 49 0 50 0 3
-202 c2 -181 2 -175 3 52 0 140 -1 234 -3 208 l-4 -48 -49 0 -49 0 -4 48 -3
47 -2 -47z"/>
<path d="M1553 983 c9 -2 25 -2 35 0 9 3 1 5 -18 5 -19 0 -27 -2 -17 -5z"/>
<path d="M1939 923 c-1 -119 1 -237 6 -241 3 -3 5 61 5 141 0 81 -2 147 -5
147 -3 0 -5 -21 -6 -47z"/>
<path d="M2048 910 c-2 -22 0 -40 4 -40 5 0 8 18 8 40 0 22 -2 40 -4 40 -2 0
-6 -18 -8 -40z"/>
<path d="M1504 850 c0 -52 1 -74 3 -47 2 26 2 68 0 95 -2 26 -3 4 -3 -48z"/>
<path d="M1284 735 c0 -99 2 -138 3 -87 2 51 2 132 0 180 -1 48 -3 6 -3 -93z"/>
<path d="M1392 880 c0 -19 2 -27 5 -17 2 9 2 25 0 35 -3 9 -5 1 -5 -18z"/>
<path d="M878 873 c12 -2 32 -2 45 0 12 2 2 4 -23 4 -25 0 -35 -2 -22 -4z"/>
<path d="M998 873 c12 -2 30 -2 40 0 9 3 -1 5 -23 4 -22 0 -30 -2 -17 -4z"/>
<path d="M1248 873 c7 -3 16 -2 19 1 4 3 -2 6 -13 5 -11 0 -14 -3 -6 -6z"/>
<path d="M1308 873 c7 -3 16 -2 19 1 4 3 -2 6 -13 5 -11 0 -14 -3 -6 -6z"/>
<path d="M1453 873 c9 -2 23 -2 30 0 6 3 -1 5 -18 5 -16 0 -22 -2 -12 -5z"/>
<path d="M1868 873 c12 -2 30 -2 40 0 9 3 -1 5 -23 4 -22 0 -30 -2 -17 -4z"/>
<path d="M1978 873 c12 -2 30 -2 40 0 9 3 -1 5 -23 4 -22 0 -30 -2 -17 -4z"/>
<path d="M2042 771 c-11 -7 -11 -9 2 -14 10 -4 16 -1 16 8 0 17 -1 17 -18 6z"/>
<path d="M878 763 c12 -2 30 -2 40 0 9 3 -1 5 -23 4 -22 0 -30 -2 -17 -4z"/>
<path d="M1533 763 c9 -2 25 -2 35 0 9 3 1 5 -18 5 -19 0 -27 -2 -17 -5z"/>
<path d="M1868 763 c12 -2 30 -2 40 0 9 3 -1 5 -23 4 -22 0 -30 -2 -17 -4z"/>
<path d="M1983 763 c9 -2 23 -2 30 0 6 3 -1 5 -18 5 -16 0 -22 -2 -12 -5z"/>
<path d="M2050 701 c0 -39 -1 -40 -37 -44 l-38 -4 43 -1 42 -2 0 45 c0 25 -2
45 -5 45 -3 0 -5 -18 -5 -39z"/>
<path d="M860 659 c0 -5 11 -9 25 -9 14 0 25 2 25 4 0 2 -11 6 -25 8 -14 3
-25 1 -25 -3z"/>
<path d="M1943 620 c0 -30 2 -43 4 -27 2 15 2 39 0 55 -2 15 -4 2 -4 -28z"/>
<path d="M953 605 c0 -22 2 -30 4 -17 2 12 2 30 0 40 -3 9 -5 -1 -4 -23z"/>
<path d="M1833 590 c0 -30 2 -43 4 -27 2 15 2 39 0 55 -2 15 -4 2 -4 -28z"/>
<path d="M1392 560 c0 -19 2 -27 5 -17 2 9 2 25 0 35 -3 9 -5 1 -5 -18z"/>
<path d="M1503 550 c0 -25 2 -35 4 -22 2 12 2 32 0 45 -2 12 -4 2 -4 -23z"/>
<path d="M1173 545 c0 -22 2 -30 4 -17 2 12 2 30 0 40 -3 9 -5 -1 -4 -23z"/>
<path d="M1612 550 c0 -19 2 -27 5 -17 2 9 2 25 0 35 -3 9 -5 1 -5 -18z"/>
<path d="M1722 560 c0 -14 2 -19 5 -12 2 6 2 18 0 25 -3 6 -5 1 -5 -13z"/>
<path d="M953 510 c0 -30 2 -43 4 -27 2 15 2 39 0 55 -2 15 -4 2 -4 -28z"/>
<path d="M2045 550 c3 -5 8 -10 11 -10 2 0 4 5 4 10 0 6 -5 10 -11 10 -5 0 -7
-4 -4 -10z"/>
<path d="M1000 471 c0 -44 5 -83 10 -86 6 -4 10 8 10 29 0 47 21 47 50 1 12
-19 26 -35 31 -35 14 0 10 13 -11 40 -23 30 -25 40 -6 40 15 0 26 21 26 50 0
25 -29 40 -74 40 l-36 0 0 -79z m85 29 c0 -21 -5 -26 -32 -28 -31 -3 -33 -1
-33 28 0 29 2 31 33 28 27 -2 32 -7 32 -28z"/>
<path d="M1290 530 c0 -11 -4 -20 -10 -20 -5 0 -10 -5 -10 -11 0 -5 4 -8 9 -4
6 3 11 -17 13 -46 2 -43 7 -53 26 -60 16 -6 22 -5 22 6 0 8 -7 15 -15 15 -11
0 -15 12 -15 45 0 35 3 43 15 39 8 -4 15 -1 15 5 0 6 -7 11 -15 11 -8 0 -15 9
-15 20 0 11 -4 20 -10 20 -5 0 -10 -9 -10 -20z"/>
<path d="M1943 495 c0 -22 2 -30 4 -17 2 12 2 30 0 40 -3 9 -5 -1 -4 -23z"/>
<path d="M1403 509 c-23 -8 -43 -38 -43 -62 0 -48 74 -78 108 -43 23 23 6 33
-19 11 -15 -14 -24 -17 -36 -9 -42 26 -42 62 0 88 12 8 22 5 42 -14 19 -18 25
-20 25 -8 0 29 -43 50 -77 37z"/>
<path d="M1542 510 c-48 -20 -48 -101 0 -119 53 -20 99 25 84 82 -4 18 -46 50
-59 46 -1 0 -12 -4 -25 -9z m49 -20 c26 -15 26 -66 -1 -80 -14 -8 -26 -8 -40
0 -26 14 -27 65 -2 79 21 13 20 13 43 1z"/>
<path d="M1703 513 c-7 -2 -13 -9 -13 -15 0 -6 7 -7 16 -4 27 10 44 -13 44
-60 0 -23 5 -46 10 -49 6 -4 10 11 10 39 0 48 22 81 47 72 8 -3 17 -6 19 -6 2
0 4 -22 4 -49 0 -28 5 -53 10 -56 6 -4 10 15 10 49 0 45 -4 58 -21 70 -21 14
-48 11 -60 -7 -4 -6 -16 -3 -30 7 -25 17 -27 17 -46 9z"/>
<path d="M1130 465 c0 -32 6 -51 20 -65 24 -24 29 -24 58 -4 20 14 22 14 22
-1 0 -9 5 -13 10 -10 6 3 10 33 10 66 0 33 -4 59 -10 59 -5 0 -10 -20 -10 -45
0 -39 -4 -47 -26 -57 -22 -11 -28 -10 -40 7 -8 10 -14 36 -14 57 0 21 -4 38
-10 38 -5 0 -10 -20 -10 -45z"/>
<path d="M1660 445 c0 -79 17 -87 22 -10 3 61 1 75 -13 75 -5 0 -9 -29 -9 -65z"/>
<path d="M878 443 c12 -2 32 -2 45 0 12 2 2 4 -23 4 -25 0 -35 -2 -22 -4z"/>
<path d="M1935 440 c3 -5 8 -10 11 -10 2 0 4 5 4 10 0 6 -5 10 -11 10 -5 0 -7
-4 -4 -10z"/>
<path d="M2000 443 c24 -3 48 -10 52 -16 5 -8 8 -6 8 6 0 14 -8 17 -52 15
l-53 -1 45 -4z"/>
<path d="M954 325 c0 -55 1 -77 3 -48 l4 52 47 4 47 3 -47 2 -47 2 -4 43 c-2
23 -3 -3 -3 -58z"/>
<path d="M1943 385 c0 -22 2 -30 4 -17 2 12 2 30 0 40 -3 9 -5 -1 -4 -23z"/>
<path d="M1724 320 c0 -52 1 -74 3 -47 2 26 2 68 0 95 -2 26 -3 4 -3 -48z"/>
<path d="M1503 310 c0 -47 2 -66 4 -42 2 23 2 61 0 85 -2 23 -4 4 -4 -43z"/>
<path d="M1060 305 c0 -43 2 -76 5 -73 7 7 8 138 1 145 -3 3 -6 -29 -6 -72z"/>
<path d="M1283 305 c0 -44 2 -61 4 -37 2 23 2 59 0 80 -2 20 -4 1 -4 -43z"/>
<path d="M1393 300 c0 -41 2 -58 4 -37 2 20 2 54 0 75 -2 20 -4 3 -4 -38z"/>
<path d="M1613 300 c0 -41 2 -58 4 -37 2 20 2 54 0 75 -2 20 -4 3 -4 -38z"/>
<path d="M1830 356 c0 -11 -14 -16 -47 -19 l-48 -3 47 -2 47 -2 4 -52 c3 -46
4 -43 5 20 1 39 0 72 -3 72 -3 0 -5 -7 -5 -14z"/>
<path d="M1172 295 c2 -63 2 -64 5 -17 l4 52 47 2 47 1 -45 4 c-24 3 -48 10
-52 16 -4 7 -7 -19 -6 -58z"/>
<path d="M878 333 c12 -2 32 -2 45 0 12 2 2 4 -23 4 -25 0 -35 -2 -22 -4z"/>
<path d="M1108 333 c12 -2 30 -2 40 0 9 3 -1 5 -23 4 -22 0 -30 -2 -17 -4z"/>
<path d="M1318 333 c12 -2 32 -2 45 0 12 2 2 4 -23 4 -25 0 -35 -2 -22 -4z"/>
<path d="M1428 333 c12 -2 32 -2 45 0 12 2 2 4 -23 4 -25 0 -35 -2 -22 -4z"/>
<path d="M1538 333 c12 -2 32 -2 45 0 12 2 2 4 -23 4 -25 0 -35 -2 -22 -4z"/>
<path d="M1638 333 c7 -3 16 -2 19 1 4 3 -2 6 -13 5 -11 0 -14 -3 -6 -6z"/>
<path d="M1688 333 c7 -3 16 -2 19 1 4 3 -2 6 -13 5 -11 0 -14 -3 -6 -6z"/>
<path d="M1868 333 c12 -2 30 -2 40 0 9 3 -1 5 -23 4 -22 0 -30 -2 -17 -4z"/>
<path d="M1938 298 c5 -71 10 -77 11 -15 0 31 -2 57 -7 57 -4 0 -6 -19 -4 -42z"/>
<path d="M2002 333 l47 -4 4 -52 3 -52 2 58 2 57 -52 -2 -53 -2 47 -3z"/>
</g>
</svg>
