<?xml version="1.0" standalone="no"?>
<!DOCTYPE svg PUBLIC "-//W3C//DTD SVG 20010904//EN"
 "http://www.w3.org/TR/2001/REC-SVG-20010904/DTD/svg10.dtd">
<svg version="1.0" xmlns="http://www.w3.org/2000/svg"
 width="819.000000pt" height="460.000000pt" viewBox="0 0 819.000000 460.000000"
 preserveAspectRatio="xMidYMid meet">
<metadata>
Created by potrace 1.16, written by Peter Selinger 2001-2019
</metadata>
<g transform="translate(0.000000,460.000000) scale(0.100000,-0.100000)"
fill="#000000" stroke="none">
<path d="M3380 3497 l0 -156 318 -3 c294 -4 321 -6 375 -26 106 -39 176 -83
241 -152 101 -107 156 -267 140 -405 -16 -142 -77 -262 -177 -351 -31 -27 -57
-52 -57 -56 0 -4 79 -100 175 -213 96 -112 175 -209 175 -215 0 -15 -373 -13
-392 3 -8 6 -79 88 -157 180 l-143 168 -132 -3 -131 -3 -3 -292 c-2 -274 -1
-293 15 -293 33 -1 1088 -1 1131 -1 l43 1 -3 698 -3 697 -24 70 c-42 126 -89
203 -181 296 -68 68 -102 94 -170 127 -151 75 -154 75 -622 80 l-418 4 0 -155z"/>
<path d="M3020 2356 l0 -674 102 -4 c56 -1 122 -1 145 1 l43 3 0 443 0 444
338 3 c326 3 338 4 379 25 144 77 166 266 43 377 -21 19 -56 39 -77 45 -24 7
-207 11 -505 11 l-468 0 0 -674z"/>
<path d="M2740 1280 l0 -220 25 0 c25 0 25 1 25 90 l0 90 34 0 c32 0 38 -6 92
-90 45 -71 63 -90 81 -90 13 0 23 4 23 8 0 4 -22 43 -50 85 -27 42 -50 81 -50
87 0 5 9 10 21 10 30 0 76 51 84 94 10 50 -13 105 -54 133 -30 20 -47 23 -132
23 l-99 0 0 -220z m215 150 c21 -17 28 -68 15 -100 -14 -35 -53 -50 -126 -50
l-54 0 0 84 0 85 48 3 c52 3 97 -5 117 -22z"/>
<path d="M3525 1478 c-2 -7 -5 -26 -7 -43 -2 -22 -9 -31 -25 -33 -15 -2 -23
-10 -23 -22 0 -12 8 -20 23 -22 21 -3 22 -8 27 -125 6 -144 16 -162 94 -170
44 -5 46 -5 46 21 0 23 -4 26 -35 26 -48 0 -56 21 -53 142 l3 103 43 3 c33 3
42 7 42 22 0 15 -9 19 -42 22 -43 3 -43 3 -46 46 -3 34 -7 42 -23 42 -11 0
-22 -6 -24 -12z"/>
<path d="M3833 1399 c-65 -19 -113 -93 -113 -174 0 -45 40 -116 79 -142 40
-27 113 -31 165 -9 63 26 103 106 53 106 -16 0 -28 -9 -35 -26 -15 -32 -75
-58 -117 -50 -60 12 -102 84 -90 156 16 91 116 131 184 74 17 -14 31 -32 31
-40 0 -9 11 -14 30 -14 28 0 29 1 19 28 -30 79 -116 117 -206 91z"/>
<path d="M4225 1400 c-71 -22 -126 -123 -111 -202 3 -20 17 -51 29 -69 66
-100 236 -90 287 16 24 50 26 124 3 172 -31 66 -132 106 -208 83z m115 -55
c43 -22 63 -68 58 -127 -9 -88 -85 -136 -162 -104 -55 23 -73 64 -67 155 0 12
16 38 35 57 39 39 86 45 136 19z"/>
<path d="M4642 1390 c-18 -11 -35 -27 -38 -35 -9 -21 -24 -8 -24 21 0 19 -5
24 -25 24 l-25 0 0 -170 0 -170 25 0 c25 0 25 0 25 94 0 119 6 150 38 181 48
48 142 26 157 -38 3 -12 6 -69 8 -127 2 -99 3 -105 23 -108 21 -3 22 1 26 115
4 125 13 153 55 172 59 27 126 1 138 -52 3 -12 6 -69 8 -127 2 -100 3 -105 25
-108 22 -3 22 -2 22 125 0 109 -3 133 -20 160 -48 79 -150 82 -209 7 l-21 -27
-33 37 c-41 48 -103 59 -155 26z"/>
<path d="M3100 1275 c0 -141 10 -174 60 -200 16 -8 49 -15 74 -15 36 0 52 6
79 30 37 32 47 30 47 -7 0 -20 5 -24 23 -21 22 3 22 5 22 168 0 163 0 165 -22
168 -22 3 -23 1 -23 -80 -1 -116 -13 -168 -45 -195 -36 -32 -95 -31 -132 1
-27 24 -28 28 -33 148 -5 118 -6 123 -27 126 -23 3 -23 2 -23 -123z"/>
</g>
</svg>
